<svg xmlns="http://www.w3.org/2000/svg" viewBox="0 -3 185 42" width="185" height="42" fill="#3498db"><path d="M31.88 8.68c.36 0 .7.2.87.5a.785.785 0 0 0 1.33 0c.2-.3.5-.5.87-.5.43 0 .77-.34.77-.76 0-.43-.33-.77-.76-.77-.55 0-1.1.2-1.53.52-.43-.33-.96-.52-1.52-.52a.764.764 0 1 0 .01 1.53zm-30.14 0c.36 0 .7.2.88.5.14.23.4.37.66.37s.5-.14.65-.37c.2-.3.52-.5.88-.5.43 0 .78-.34.78-.76a.77.77 0 0 0-.77-.77c-.55 0-1.1.2-1.52.52-.44-.33-.98-.52-1.54-.52-.42 0-.76.34-.76.77 0 .42.34.76.76.76Zm16.6-6.86a3.8 3.8 0 1 1 0 7.6 3.8 3.8 0 1 1 0-7.6m0 1.6a2.2 2.2 0 1 0 0 4.4 2.2 2.2 0 1 0 0-4.4"/><rect x="17.74" y="-1.5" width="1.2" height="2.5" rx=".6"/><rect x="17.74" y="10.2" width="1.2" height="2.5" rx=".6"/><rect x="11.2" y="5.02" width="2.5" height="1.2" rx=".6"/><rect x="23" y="5.02" width="2.5" height="1.2" rx=".6"/><g transform="rotate(45 18.34 5.62)"><rect x="17.74" y="-1.5" width="1.2" height="2.5" rx=".6"/><rect x="17.74" y="10.2" width="1.2" height="2.5" rx=".6"/><rect x="11.2" y="5.02" width="2.5" height="1.2" rx=".6"/><rect x="23" y="5.02" width="2.5" height="1.2" rx=".6"/></g><path d="m36.6 25.86-8.96-15.5a.73.73 0 0 0-.63-.35c-.25 0-.5.15-.62.37l-7 12.1a.737.737 0 0 0 1.28.73l1.56-2.7 1.85 1.36c.26.2.6.2.87 0L27 20.33l2.1 1.53c.1.1.27.15.42.15s.3-.04.43-.14l1.86-1.37 3.34 5.77c-.72 1.6-1.66 3.07-2.8 4.4a.733.733 0 0 0 .55 1.22c.2 0 .4-.08.55-.25 1.32-1.54 2.4-3.26 3.2-5.1.1-.22.07-.47-.04-.67zm-7.08-5.5-2.08-1.52c-.25-.2-.6-.2-.86 0l-2.07 1.53-1.55-1.15L27 12.2l4.07 7.02-1.55 1.15z"/><path d="M30.35 32.66a18.42 18.42 0 0 1-12 4.45c-7.26 0-13.8-4.23-16.8-10.83l3.33-5.78 1.85 1.36c.26.2.6.2.87 0l2.07-1.53 2.08 1.53c.13.1.28.15.43.15s.3-.04.43-.14l1.87-1.37 8.1 14.05c.2.35.66.47 1 .26.36-.2.47-.63.27-.98L10.3 10.37a.74.74 0 0 0-.63-.36c-.26 0-.5.15-.63.37L.1 25.87c-.12.2-.13.44-.04.65a19.896 19.896 0 0 0 31.24 7.25c.3-.27.34-.73.07-1.03a.727.727 0 0 0-1.02-.08M9.67 12.2l4.07 7.02-1.56 1.15-2.07-1.53c-.25-.2-.6-.2-.86 0l-2.07 1.53-1.56-1.15 4.07-7.03Z"/><path aria-label="tabliss-ng" d="M46.939 24.238c0 4.106 1.83 6.906 6.235 6.906.485 0 .634-.26.634-.634v-.187c0-.41-.186-.597-.746-.635-1.531-.074-4.555-.56-4.555-5.562V13.859h4.256c.41 0 .635-.224.635-.635v-.149c0-.41-.224-.635-.635-.635h-4.256V7.774c0-.41-.224-.635-.635-.635h-.298c-.411 0-.635.224-.635.635v4.666h-1.83c-.41 0-.634.224-.634.635v.15c0 .41.224.634.635.634h1.829zm7.46 1.792c0 3.733 3.323 5.413 6.347 5.413 4.853 0 6.57-4.592 6.533-4.592h.075s-.15.672-.15 1.68v1.83c0 .41.224.634.635.634h.299c.41 0 .634-.224.634-.635V18.936c0-4.666-2.314-7.056-6.608-7.056-2.95 0-4.965 1.083-5.824 1.68-.336.224-.373.56-.112.896l.15.224c.26.336.56.374.896.15.82-.523 2.538-1.419 4.816-1.419 2.986 0 5.114 1.419 5.114 5.563v.634h-1.232c-3.322 0-11.573.075-11.573 6.422m1.643-.112c0-4.854 6.794-4.854 9.968-4.854h1.194v1.008c0 3.696-2.314 7.915-6.384 7.915-3.173 0-4.778-2.09-4.778-4.07m17.24 4.442c0 .411.225.635.636.635h.298c.41 0 .635-.224.635-.635v-1.493c0-.97-.15-1.643-.15-1.643h.075s1.755 4.22 6.459 4.22c4.89 0 8.362-3.846 8.362-9.782 0-5.787-3.06-9.782-8.064-9.782-5.151 0-6.757 4.22-6.757 4.22h-.074s.149-.673.149-1.532V5.496c0-.41-.224-.634-.635-.634h-.298c-.411 0-.635.224-.635.634zm1.532-8.66c0-5.862 3.21-8.289 6.645-8.289 3.808 0 6.496 3.21 6.496 8.25 0 5.227-2.987 8.251-6.646 8.251-4.368 0-6.495-4.069-6.495-8.213m18.323 5.524c0 3.51 2.576 3.92 3.66 3.92.522 0 .671-.26.671-.672v-.224c0-.448-.261-.56-.597-.597-.896-.112-2.166-.336-2.166-2.95V5.497c0-.41-.224-.634-.634-.634h-.299c-.41 0-.635.224-.635.634zm7.498-19.637h.597c.41 0 .635-.224.635-.635V5.496c0-.41-.224-.634-.635-.634h-.597c-.41 0-.635.224-.635.634v1.456c0 .411.224.635.635.635m-.486 22.773c0 .411.224.635.635.635h.299c.41 0 .634-.224.634-.635V12.963c0-.41-.224-.635-.634-.635h-.299c-.41 0-.635.224-.635.635zm5.071-1.194c.821.784 2.95 2.277 6.31 2.277 3.434 0 5.973-2.053 5.973-5.04 0-6.197-10.267-4.741-10.267-9.595 0-2.426 2.09-3.397 4.219-3.397 2.128 0 3.546.784 4.218 1.307.336.261.635.261.896-.075l.224-.299c.224-.336.15-.634-.149-.858-.672-.56-2.352-1.606-5.077-1.606-3.174 0-5.974 1.718-5.974 5.04 0 6.086 10.267 4.742 10.267 9.483 0 2.315-2.016 3.51-4.293 3.51-2.65 0-4.518-1.233-5.302-1.905-.336-.26-.634-.26-.896.038l-.224.261c-.224.299-.224.597.075.859m14.33 0c.82.784 2.949 2.277 6.309 2.277 3.434 0 5.973-2.053 5.973-5.04 0-6.197-10.267-4.741-10.267-9.595 0-2.426 2.091-3.397 4.22-3.397 2.127 0 3.546.784 4.218 1.307.336.261.634.261.896-.075l.224-.299c.224-.336.149-.634-.15-.858-.672-.56-2.352-1.606-5.077-1.606-3.173 0-5.973 1.718-5.973 5.04 0 6.086 10.266 4.742 10.266 9.483 0 2.315-2.016 3.51-4.293 3.51-2.65 0-4.517-1.233-5.301-1.905-.336-.26-.635-.26-.896.038l-.224.261c-.224.299-.224.597.074.859m15.897-7.99h9.034c.411 0 .635-.224.635-.634v-.224c0-.41-.224-.635-.635-.635h-9.034c-.411 0-.635.224-.635.635v.224c0 .41.224.634.635.634m14.105 9.184c0 .411.224.635.635.635h.298c.411 0 .635-.224.635-.635V21.7c0-4.78 3.584-8.289 7.84-8.289 4.181 0 4.592 3.061 4.592 6.31v10.64c0 .41.224.634.635.634h.298c.411 0 .635-.224.635-.635v-11.2c0-4.405-1.307-7.28-6.16-7.28-4.667 0-7.28 3.51-7.915 5.264h-.074s.149-.672.149-1.53v-2.65c0-.412-.224-.636-.635-.636h-.298c-.411 0-.635.224-.635.635zm20.975 6.123-.187.336c-.187.373-.112.672.299.859a12.8 12.8 0 0 0 5.301 1.157c4.405 0 8.512-2.24 8.512-7.952v-17.92c0-.41-.224-.635-.635-.635h-.298c-.411 0-.635.224-.635.635v1.867c0 .448.112.71.112.71h-.075s-1.306-3.66-6.346-3.66-8.176 3.66-8.176 9.371c0 5.973 3.434 9.744 8.288 9.744 3.098 0 5.152-1.53 6.272-3.808h.074s-.149.672-.149 1.53v2.166c0 4.517-3.173 6.421-6.944 6.421-2.24 0-3.77-.672-4.592-1.045-.373-.187-.635-.112-.821.224m6.272-7.019c-3.995 0-6.758-2.986-6.758-8.25 0-4.89 2.352-7.803 6.534-7.803 3.434 0 6.346 1.941 6.346 8.027 0 5.973-2.837 8.026-6.122 8.026"/></svg>
